<?xml version="1.0" encoding="UTF-8"?>
<svg width="20px" height="20px" version="1.1" viewBox="0 0 1200 1200" xmlns="http://www.w3.org/2000/svg">
 <g>
  <path d="m336.91 111.98c-2.3125 0.058594-4.6172 0.32812-6.8828 0.80859-34.004 0.22266-64.453 0.80469-89.137 3.5898-35.277 3.9805-66.254 12.617-89.137 35.523-22.879 22.906-31.492 53.879-35.449 89.137-3.957 35.258-3.8086 77.867-3.8086 133.96v450c0 56.168-0.097656 98.828 3.8828 134.11 3.9805 35.277 12.617 66.254 35.523 89.137 22.906 22.879 53.879 31.492 89.137 35.449 35.258 3.957 77.867 3.8086 133.96 3.8086h450c56.168 0 98.828 0.097657 134.11-3.8828 35.277-3.9805 66.254-12.617 89.137-35.523s31.492-53.879 35.449-89.137c3.957-35.258 3.8086-77.867 3.8086-133.96v-375c0-49.684 0.23438-82.738-16.773-116.75-16.996-33.984-44.645-60.191-94.188-109.72-49.562-49.582-75.461-77.215-109.43-94.266-32.508-16.316-64.641-16.691-111.18-16.699l-0.003906 0.003907c-3.8047-0.61719-7.6836-0.64062-11.5-0.074219h-369.43c-11.457 0-20.156 0.12109-30.543 0.14453-2.4844-0.47266-5.0117-0.69141-7.543-0.65625zm38.086 75.516h337.5v150.07h-337.5zm-75 0.58594v186.98c0 9.9453 3.9531 19.484 10.984 26.516 7.0312 7.0352 16.57 10.984 26.516 10.984h412.5c9.9453 0 19.484-3.9492 26.516-10.984 7.0312-7.0312 10.984-16.57 10.984-26.516v-186.62c20.367 0.84375 35.262 2.5586 45.922 7.9102 16.289 8.1758 40.465 30.559 90.016 80.125 0.023438 0.027344 0.046875 0.050781 0.074219 0.074219 49.539 49.52 71.914 73.816 80.125 90.234 8.2109 16.422 8.8633 33.738 8.8633 83.203v375c0 56.07-0.23438 97.648-3.3711 125.61-3.1367 27.961-8.6172 39.23-13.914 44.531-5.2969 5.3047-16.566 10.832-44.531 13.988s-69.555 3.3711-125.68 3.3711h-450c-56.07 0-97.648-0.23047-125.61-3.3711-27.961-3.1367-39.23-8.6172-44.531-13.914-5.3047-5.2969-10.832-16.566-13.988-44.531-3.1562-27.965-3.3711-69.555-3.3711-125.68v-450c0-56.07 0.23047-97.648 3.3711-125.61 3.1367-27.961 8.6172-39.23 13.914-44.531 5.2969-5.3047 16.566-10.832 44.531-13.988 13.551-1.5312 30.629-2.3242 50.684-2.7852z"/>
  <path d="m600 600c-82.398 0-150 67.602-150 150s67.602 150 150 150 150-67.602 150-150-67.602-150-150-150zm0 75c41.863 0 75 33.133 75 75s-33.133 75-75 75-75-33.133-75-75 33.133-75 75-75z"/>
 </g>
</svg>
